<svg xmlns="http://www.w3.org/2000/svg" viewBox="206.202 61.459 97.381 114.874" width="97.381" height="114.874"><path fill="#2D0F06" transform="scale(0.375092 0.376302)" d="M626.552 439.761C599.751 428.564 577.976 408.764 566.82 381.647C558.509 361.446 559.195 342.079 559 320.735C558.948 315.093 557.736 308.315 559.928 302.966C560.466 301.651 561.607 299.749 563.005 299.206C567.95 297.287 749.553 297.092 753.169 298.992C755.283 300.104 756.524 302.471 757.116 304.703C758.378 309.462 757.77 315.217 757.699 320.112C770.467 320.317 780.582 322.362 790.059 332.05C797.398 339.686 801.359 349.952 801.051 360.539C800.799 371.047 796.327 381.012 788.646 388.185C774.497 401.486 758.211 400.259 740.278 400.194C726.816 418.296 712.011 431.428 690.647 439.715C686.357 440.671 678.999 440.267 674.323 440.22C661.949 439.905 649.518 440.28 637.138 440.223C633.563 440.207 630.087 440.422 626.552 439.761Z"/><path fill="#F7E3BD" transform="scale(0.375092 0.376302)" d="M708.597 325.872C719.817 324.851 724.472 334.878 715.827 343.264C695.287 363.388 675.32 384.346 654.297 403.923C645.09 412.497 628.787 390.413 622.237 383.667C617.112 378.633 606.295 370.302 614.204 362.66C616.018 360.876 618.482 359.911 621.025 359.988C627.454 360.241 643.548 378.801 648.844 384.176C661.77 371.525 674.605 358.783 687.35 345.949C692.105 341.204 703.475 329.31 708.597 325.872Z"/><path fill="white" transform="scale(0.375092 0.376302)" d="M757.705 339.436C766.039 339.511 772.641 340.526 778.053 347.747C781.181 351.919 782.471 357.186 781.626 362.332C780.48 369.29 776.573 373.474 771.088 377.365C764.048 381.006 758.168 380.54 750.466 380.504C756.129 365.515 757.181 355.313 757.705 339.436Z"/><path fill="#F0B221" transform="scale(0.375092 0.376302)" d="M626.552 439.761C630.087 440.422 633.563 440.207 637.138 440.223C649.518 440.28 661.949 439.905 674.323 440.22C674.441 445.939 674.421 453.616 674.929 459.244L611.478 459.311C600.709 459.331 590.056 459.49 579.282 459.1C568.368 459.786 567.857 442.462 576.502 440.902C591.906 438.121 610.366 441.683 625.904 439.842L626.552 439.761Z"/><path fill="#F7E3BD" transform="scale(0.375092 0.376302)" d="M655.978 171.295C657.214 171.3 658.324 171.468 659.516 171.778C662.104 172.451 664.586 173.719 665.932 176.14C667.804 179.511 668.394 238.645 666.768 243.576C665.724 246.746 662.816 248.172 660.091 249.657C659.144 249.623 658.199 249.561 657.256 249.472C654.68 249.212 651.862 248.312 650.272 246.133C646.292 240.68 647.137 186.014 648.737 176.902C651.2 173.773 652.432 172.936 655.978 171.295Z"/><path fill="#60A951" transform="scale(0.375092 0.376302)" d="M674.323 440.22C678.999 440.267 686.357 440.671 690.647 439.715C690.753 439.762 690.857 439.813 690.965 439.856C700.486 443.629 740.253 434.046 745.122 445.777C746.173 448.311 745.919 451.606 744.724 454.048C743.732 456.075 742.266 457.266 740.138 457.941C731.694 460.622 687.087 459.194 674.929 459.244C674.421 453.616 674.441 445.939 674.323 440.22Z"/><path fill="#F7E3BD" transform="scale(0.375092 0.376302)" d="M620.794 216.795C624.588 217.013 630.768 219.307 631.061 223.673C632.113 239.35 632.769 256.92 630.546 272.418C630.186 274.924 625.075 277.125 623.075 277.917C621.176 277.734 619.539 277.411 617.813 276.574C615.583 275.493 613.873 273.756 613.111 271.367C611.185 265.328 610.794 226.293 613.513 221.515C615.11 218.709 617.844 217.597 620.794 216.795Z"/><path fill="#F7E3BD" transform="scale(0.375092 0.376302)" d="M691.78 216.728C695.019 216.869 702.048 218.172 702.564 222.165C704.569 237.701 704.473 256.182 702.706 271.766C702.418 274.311 698.246 276.574 696.208 277.472C692.027 277.485 685.597 276.587 684.98 271.232C683.196 255.75 683.344 238.244 684.953 222.766C685.226 220.145 689.646 217.662 691.78 216.728Z"/></svg>