<?xml version="1.0" encoding="utf-8" ?><svg xmlns="http://www.w3.org/2000/svg" xmlns:xlink="http://www.w3.org/1999/xlink" width="512" height="289" viewBox="0 0 512 289"><path fill="white" transform="scale(0.375092 0.376302)" d="M0 0L1365 0L1365 768L0 768L0 0Z"/><path fill="#2D0F06" transform="scale(0.375092 0.376302)" d="M626.552 439.761C599.751 428.564 577.976 408.764 566.82 381.647C558.509 361.446 559.195 342.079 559 320.735C558.948 315.093 557.736 308.315 559.928 302.966C560.466 301.651 561.607 299.749 563.005 299.206C567.95 297.287 749.553 297.092 753.169 298.992C755.283 300.104 756.524 302.471 757.116 304.703C758.378 309.462 757.77 315.217 757.699 320.112C770.467 320.317 780.582 322.362 790.059 332.05C797.398 339.686 801.359 349.952 801.051 360.539C800.799 371.047 796.327 381.012 788.646 388.185C774.497 401.486 758.211 400.259 740.278 400.194C726.816 418.296 712.011 431.428 690.647 439.715C686.357 440.671 678.999 440.267 674.323 440.22C661.949 439.905 649.518 440.28 637.138 440.223C633.563 440.207 630.087 440.422 626.552 439.761Z"/><path fill="#F7E3BD" transform="scale(0.375092 0.376302)" d="M708.597 325.872C719.817 324.851 724.472 334.878 715.827 343.264C695.287 363.388 675.32 384.346 654.297 403.923C645.09 412.497 628.787 390.413 622.237 383.667C617.112 378.633 606.295 370.302 614.204 362.66C616.018 360.876 618.482 359.911 621.025 359.988C627.454 360.241 643.548 378.801 648.844 384.176C661.77 371.525 674.605 358.783 687.35 345.949C692.105 341.204 703.475 329.31 708.597 325.872Z"/><path fill="white" transform="scale(0.375092 0.376302)" d="M757.705 339.436C766.039 339.511 772.641 340.526 778.053 347.747C781.181 351.919 782.471 357.186 781.626 362.332C780.48 369.29 776.573 373.474 771.088 377.365C764.048 381.006 758.168 380.54 750.466 380.504C756.129 365.515 757.181 355.313 757.705 339.436Z"/><path fill="#F0B221" transform="scale(0.375092 0.376302)" d="M626.552 439.761C630.087 440.422 633.563 440.207 637.138 440.223C649.518 440.28 661.949 439.905 674.323 440.22C674.441 445.939 674.421 453.616 674.929 459.244L611.478 459.311C600.709 459.331 590.056 459.49 579.282 459.1C568.368 459.786 567.857 442.462 576.502 440.902C591.906 438.121 610.366 441.683 625.904 439.842L626.552 439.761Z"/><path fill="#F7E3BD" transform="scale(0.375092 0.376302)" d="M655.978 171.295C657.214 171.3 658.324 171.468 659.516 171.778C662.104 172.451 664.586 173.719 665.932 176.14C667.804 179.511 668.394 238.645 666.768 243.576C665.724 246.746 662.816 248.172 660.091 249.657C659.144 249.623 658.199 249.561 657.256 249.472C654.68 249.212 651.862 248.312 650.272 246.133C646.292 240.68 647.137 186.014 648.737 176.902C651.2 173.773 652.432 172.936 655.978 171.295Z"/><path fill="#60A951" transform="scale(0.375092 0.376302)" d="M674.323 440.22C678.999 440.267 686.357 440.671 690.647 439.715C690.753 439.762 690.857 439.813 690.965 439.856C700.486 443.629 740.253 434.046 745.122 445.777C746.173 448.311 745.919 451.606 744.724 454.048C743.732 456.075 742.266 457.266 740.138 457.941C731.694 460.622 687.087 459.194 674.929 459.244C674.421 453.616 674.441 445.939 674.323 440.22Z"/><path fill="#020202" transform="scale(0.375092 0.376302)" d="M601.927 513.657C604.646 513.525 606.814 513.281 609.481 513.873C609.74 515.188 609.965 516.51 610.157 517.836C612.501 517.427 616.163 513.658 618.453 513.302C639.861 509.975 643.937 544.171 623.089 549.384C616.721 549.525 614.684 547.838 609.925 543.919L610.347 561.37L601.784 561.457L601.927 513.657Z"/><path fill="white" transform="scale(0.375092 0.376302)" d="M616.603 519.905C629.625 519.416 631.714 535.544 621.953 542.104C608.262 543.55 605.872 526.411 616.603 519.905Z"/><path fill="#020202" transform="scale(0.375092 0.376302)" d="M517.798 501.397C529.597 501.266 549.554 498.287 552.804 513.35C553.76 517.824 552.854 522.494 550.294 526.285C547.106 530.942 543.978 531.685 538.701 532.644L526.228 532.679C526.128 537.883 526.203 543.319 526.196 548.544L517.659 548.496L517.798 501.397Z"/><path fill="white" transform="scale(0.375092 0.376302)" d="M526.096 508.759C536.439 508.644 549.984 508.452 542.317 523.556C537.586 526.288 531.561 525.489 525.993 525.396L526.096 508.759Z"/><path fill="#F7E3BD" transform="scale(0.375092 0.376302)" d="M620.794 216.795C624.588 217.013 630.768 219.307 631.061 223.673C632.113 239.35 632.769 256.92 630.546 272.418C630.186 274.924 625.075 277.125 623.075 277.917C621.176 277.734 619.539 277.411 617.813 276.574C615.583 275.493 613.873 273.756 613.111 271.367C611.185 265.328 610.794 226.293 613.513 221.515C615.11 218.709 617.844 217.597 620.794 216.795Z"/><path fill="#F7E3BD" transform="scale(0.375092 0.376302)" d="M691.78 216.728C695.019 216.869 702.048 218.172 702.564 222.165C704.569 237.701 704.473 256.182 702.706 271.766C702.418 274.311 698.246 276.574 696.208 277.472C692.027 277.485 685.597 276.587 684.98 271.232C683.196 255.75 683.344 238.244 684.953 222.766C685.226 220.145 689.646 217.662 691.78 216.728Z"/><path fill="#020202" transform="scale(0.375092 0.376302)" d="M570.896 513.766C580.485 510.964 590.524 516.493 593.283 526.097C596.042 535.7 590.47 545.717 580.856 548.434C571.303 551.134 561.365 545.603 558.623 536.059C555.881 526.516 561.368 516.551 570.896 513.766Z"/><path fill="white" transform="scale(0.375092 0.376302)" d="M573.687 520.095C587.663 519.797 589.122 536.725 577.818 542.123C564.785 542.475 562.467 526.163 573.687 520.095Z"/><path fill="#020202" transform="scale(0.375092 0.376302)" d="M812.335 512.834C821.581 512.446 828.486 517.13 829.94 526.157C830.393 528.967 831.354 530.444 829.768 533.033C823.731 534.503 808.341 530.888 805.294 535.322C806.236 543.548 817.886 544.545 822.36 538.33C822.855 537.643 824.202 537.649 825.136 537.497C826.374 537.696 827.61 537.908 828.843 538.134L829.628 539.272C829.11 547.092 813.09 552.898 805.383 546.936C791.666 536.326 793.795 516.335 812.335 512.834Z"/><path fill="white" transform="scale(0.375092 0.376302)" d="M812.35 519.448C816.322 519.573 822.158 521.475 821.623 526.319C819.508 528.036 819.344 527.46 815.967 527.578C812.15 527.75 807.043 528.858 805.36 524.768C806.451 522.229 809.858 520.398 812.35 519.448Z"/><path fill="#020202" transform="scale(0.375092 0.376302)" d="M719.79 512.916C721.566 513.027 724.094 513.278 725.805 513.567C737.021 515.46 736.742 538.924 734.433 547.581C732.391 548.346 729.326 548.706 727.538 547.384L727.209 544.497C722.795 544.156 715.22 556.909 704.886 542.939C701.108 526.181 716.775 530.081 725.534 526.405C727.324 524.194 726.71 521.521 724.374 520.161C719.351 517.237 713.578 523.538 708.232 524.278C706.2 523.522 706.891 524.112 705.778 521.796C706.821 515.694 714.426 513.475 719.79 512.916Z"/><path fill="white" transform="scale(0.375092 0.376302)" d="M720.446 532.829C723.511 532.451 724.818 531.691 726.793 534.232C727.409 538.452 723.364 541.427 719.98 542.942C716.559 542.859 714.268 542.825 712.541 539.484C712.76 534.008 715.855 533.73 720.446 532.829Z"/><path fill="#020202" transform="scale(0.375092 0.376302)" d="M644.792 513.624L652.645 513.824C652.714 519.462 651.545 537.097 654.738 539.547C671.178 552.159 667.794 517.228 667.764 513.765L675.95 513.894L676.067 528.167L676.222 548.361C674.339 548.385 672.536 548.266 670.659 548.166C667.926 546.485 669.546 547.645 668.066 544.475C641.309 561.09 643.631 530.58 644.792 513.624Z"/><path fill="#020202" transform="scale(0.375092 0.376302)" d="M754.673 504.396L754.915 504.51C755.926 506.169 755.592 511.506 755.593 513.782C760.065 513.466 761.336 512.582 764.089 516.122C764.191 518.213 764.292 517.434 762.891 519.471C760.94 520.889 758.055 520.355 755.543 520.213C755.438 523.902 754.152 538.366 757.908 540.565C759.157 541.296 760.637 539.508 763.167 542.539C763.653 545.069 763.719 545.417 763.12 547.962L761.854 548.688C761.477 548.701 761.1 548.711 760.723 548.72C737.676 549.216 752.157 526.584 746.077 520.234C741.526 520.094 739.993 519.282 741.498 513.981C741.678 513.348 745.57 513.188 746.336 513.113C749.798 509.425 746.37 508.313 747.633 505.47C749.852 504.116 752.052 504.391 754.673 504.396Z"/><path fill="#020202" transform="scale(0.375092 0.376302)" d="M774.559 504.896L782.6 504.551L782.768 513.416C787.213 513.327 788.168 512.533 790.829 516.051C790.87 518.183 791.006 517.385 789.515 519.407C787.572 520.685 784.928 520.216 782.53 520.084C782.448 525.215 781.096 538.374 785.437 541.151C787.446 541.305 787.859 541.278 789.729 541.938C791.126 543.683 790.691 546.06 790.59 548.363C765.804 553.066 778.446 526.45 773.401 520.349C771.564 520.423 771.259 520.442 769.507 519.912C768.446 518.27 768.458 515.621 769.545 514.002C771.438 513.855 771.664 513.763 773.346 512.876C775.022 510.927 774.583 507.6 774.559 504.896Z"/><path fill="#020202" transform="scale(0.375092 0.376302)" d="M686.367 499.327L694.47 499.304C694.558 511.316 693.735 528.309 695.404 540.321C695.463 540.749 697.965 541.769 698.627 542.082C700.164 544.713 699.604 544.935 699.573 548.476C698.106 548.603 696.628 548.731 695.156 548.744C692.577 548.768 690.228 548.243 688.412 546.266C684.261 541.747 686.321 507.105 686.367 499.327Z"/><path fill="#020202" transform="scale(0.375092 0.376302)" d="M422.557 577.31C434.95 577.181 444.147 581.259 436.886 595.324C431.831 599.031 428.972 598.332 422.631 598.277L422.557 577.31Z"/><path fill="white" transform="scale(0.375092 0.376302)" d="M424.572 579.349C435.914 579.188 439.873 584.25 434.741 594.625C421.343 601.223 424.496 588.202 424.572 579.349Z"/><path fill="#020202" transform="scale(0.375092 0.376302)" d="M772.63 582.478C774.318 582.682 776.256 583.697 777.862 584.408C778.544 584.069 779.218 583.714 779.884 583.342C783.079 589.945 780.595 613.988 768.517 601.355C767.903 600.712 768.365 600.173 768.639 599.29C771.398 601.863 777.108 604.21 779.109 599.884C778.631 597.753 779.018 597.692 777.701 596.745C766.369 601.916 763.755 587.772 772.63 582.478Z"/><path fill="white" transform="scale(0.375092 0.376302)" d="M772.468 584.277C779.942 585.246 780.01 591.264 775.822 596.074C767.541 595.773 768.232 589.227 772.468 584.277Z"/><path fill="#020202" transform="scale(0.375092 0.376302)" d="M841.731 576.238L842.891 576.941C844.034 579.068 844.482 596.654 842.128 598.428C839.273 595.27 840.623 599.305 833.321 597.822C827.463 590.649 830.737 579.527 840.036 584.054L840.672 584.367L841.341 583.893C841.391 581.338 841.521 578.785 841.731 576.238Z"/><path fill="white" transform="scale(0.375092 0.376302)" d="M835.18 584.37C843.129 585.079 843.061 592.071 838.378 596.764C837.032 596.654 835.74 596.603 834.62 595.806C833.482 594.991 832.717 593.756 832.493 592.374C831.942 589.033 833.349 586.848 835.18 584.37Z"/><path fill="#020202" transform="scale(0.375092 0.376302)" d="M543.928 583.051C548.436 585.651 548.433 582.12 551.874 583.343C560.526 586.418 557.717 595.681 551.299 599.191C549.865 598.612 547.857 597.502 546.424 596.771C545.186 598.039 546.406 600.324 545.407 603.618L544.346 603.75C543.25 601.422 543.874 586.832 543.928 583.051Z"/><path fill="white" transform="scale(0.375092 0.376302)" d="M549.275 584.293C556.724 586.041 556.459 592.861 551.618 597.376C550.003 596.892 548.494 596.482 547.292 595.223C546.218 594.106 545.632 592.608 545.664 591.058C545.728 587.822 547.174 586.375 549.275 584.293Z"/><path fill="#020202" transform="scale(0.375092 0.376302)" d="M674.278 576.208C677.87 578.182 674.728 581.716 676.514 584.495C687.105 579.585 688.79 590.697 684.603 597.316C680.86 599.128 680.38 598.123 676.339 597.006L675.087 598.51L674.271 598.06C673.583 593.681 673.626 580.587 674.278 576.208Z"/><path fill="white" transform="scale(0.375092 0.376302)" d="M679.529 584.455C686.561 585.671 686.345 592.604 681.955 596.874C674.264 595.402 673.998 589.025 679.529 584.455Z"/><path fill="#020202" transform="scale(0.375092 0.376302)" d="M445.678 583.298C456.573 582.396 458.906 591.826 451.616 598.373C450.927 598.457 450.351 598.515 449.652 598.549C447.504 598.673 445.409 597.853 443.917 596.302C439.903 592.175 442.046 586.772 445.678 583.298Z"/><path fill="white" transform="scale(0.375092 0.376302)" d="M447.925 584.327C455.126 586.54 455.566 593.139 449.665 597.214C442.028 594.667 442.416 589.116 447.925 584.327Z"/><path fill="#020202" transform="scale(0.375092 0.376302)" d="M788.273 583.177C798.89 582.873 801.405 592.267 793.091 598.628C783.144 599.045 781.048 589.654 788.273 583.177Z"/><path fill="white" transform="scale(0.375092 0.376302)" d="M789.717 584.383C791.312 584.776 792.796 585.109 794.032 586.263C795.158 587.31 795.826 588.758 795.892 590.294C795.993 593.335 794.578 594.902 792.648 596.87C784.401 595.678 784.314 589.365 789.717 584.383Z"/><path fill="#020202" transform="scale(0.375092 0.376302)" d="M648.548 594.985C650.098 590.707 651.652 579.344 654.528 577.438L655.17 578.325L654.484 581.483C653.597 585.031 651.516 595.371 648.943 597.503C646.455 595.929 643.794 584.615 642.597 580.932C640.615 587.591 638.998 594.272 636.488 600.764C634.361 595.017 631.172 582.95 629.776 576.977C633.659 577.836 635.603 590.848 636.522 594.867C637.689 591.216 639.918 580.484 642.653 578.453C645.41 580.358 647.54 591.076 648.548 594.985Z"/><path fill="#020202" transform="scale(0.375092 0.376302)" d="M612.449 582.533C620.198 583.051 622.399 591.16 619.421 597.167C617.479 598.631 614.136 597.91 611.6 598.212C609.868 598.418 608.251 596.612 607.016 595.38C607.944 588.118 613.412 591.086 617.362 587.631L617.225 586.366L615.988 585.5C612.825 585.143 611.999 585.425 608.884 586.18L608.447 585.703C609.703 583.892 610.542 583.613 612.449 582.533Z"/><path fill="white" transform="scale(0.375092 0.376302)" d="M613.139 590.641L616.249 590.772C617.827 591.944 617.412 591.277 617.745 593.137C616.703 595.556 616.112 595.828 614.018 597.257C611.505 596.647 610.566 596.265 609.584 593.989C610.721 591.67 610.663 592.215 613.139 590.641Z"/><path fill="#020202" transform="scale(0.375092 0.376302)" d="M852.392 582.527C856.033 583.174 860.055 584.223 860.231 588.758C858.104 591.799 853.154 591.972 849.264 592.672L849.622 595.114C853.803 597.084 854.091 597.244 858.249 595.173L858.473 594.527L859.308 594.38C859.049 596.426 859.189 595.741 857.666 597.557C847.117 602.311 842.119 588.691 852.392 582.527Z"/><path fill="white" transform="scale(0.375092 0.376302)" d="M851.855 584.467C854.751 584.527 857.536 585.387 858.137 588.549L857.109 589.438C854.349 589.445 851.718 589.833 849.572 588.558C849.797 586.392 850.329 586.369 851.855 584.467Z"/><path fill="#020202" transform="scale(0.375092 0.376302)" d="M590.331 582.701C599.112 583.851 597.424 588.561 597.316 595.916C591.107 598.471 589.405 600.906 584.576 594.804C587.282 587.696 589.37 591.803 594.84 587.448L594.905 586.357C591.403 583.705 590.001 586.398 586.097 586.311C587.136 584.044 588.142 583.779 590.331 582.701Z"/><path fill="white" transform="scale(0.375092 0.376302)" d="M592.666 590.611C594.095 590.684 594.069 590.802 595.159 591.668L595.141 593.265C593.71 595.657 592.96 595.955 590.605 597.409C588.128 596.183 587.287 595.831 587.459 593.176C588.741 591.415 590.565 591.178 592.666 590.611Z"/><path fill="#020202" transform="scale(0.375092 0.376302)" d="M565.036 582.751C572.202 583.81 574.562 591.214 571.216 597.694C570.81 598.481 565.534 598.038 564.394 598.237C562.153 598.628 560.661 596.876 559.18 595.403C561.356 587.648 563.956 591.93 569.386 587.426L569.315 586.327C566.655 584.706 563.925 585.584 560.924 586.274L560.643 585.661C562.22 583.804 562.866 583.646 565.036 582.751Z"/><path fill="white" transform="scale(0.375092 0.376302)" d="M566.237 590.552C568.826 590.832 568.091 590.408 569.717 591.808L569.814 593.281C568.766 595.566 567.872 595.906 565.78 597.18C563.084 596.397 562.068 596.194 561.925 593.465C562.989 591.612 564.277 591.337 566.237 590.552Z"/><path fill="#020202" transform="scale(0.375092 0.376302)" d="M813.762 582.624C814.297 582.715 814.83 582.82 815.359 582.939C818.721 583.705 822.247 587.009 821.275 590.568C818.046 592.186 814.82 590.291 810.966 591.606C810.045 593.601 810.089 592.807 810.397 594.816C813.103 597.488 816.923 596.415 819.604 594.316C819.853 594.213 820.407 594.291 820.732 594.307C816.228 607.489 798.457 589.639 813.762 582.624Z"/><path fill="white" transform="scale(0.375092 0.376302)" d="M812.558 584.569C815.277 584.629 815.805 584.552 818.039 586.171C818.953 588.291 818.936 587.431 818.258 589.415C815.917 589.481 812.564 589.908 810.741 588.732C810.705 586.463 811.073 586.69 812.558 584.569Z"/><path fill="#020202" transform="scale(0.375092 0.376302)" d="M516.53 583.329C520.736 583.107 527.295 584.757 526.481 589.993C523.081 592.331 518.041 589.918 515.466 592.833C516.075 596.353 518.311 597.051 521.441 596.325C523.027 595.262 523.138 594.795 524.808 594.816L524.484 596.086C515.956 603.621 507.771 592.499 516.53 583.329Z"/><path fill="white" transform="scale(0.375092 0.376302)" d="M517.919 584.369C520.538 584.797 523.35 585.746 524.169 588.61L523.169 589.467C520.307 589.479 517.841 589.884 515.595 588.568C515.818 586.333 516.348 586.332 517.919 584.369Z"/><path fill="#020202" transform="scale(0.375092 0.376302)" d="M915.238 582.601C919.142 583.306 923.998 586.312 922.413 590.737C920.465 591.749 915.623 591.27 912.822 591.37C911.131 592.531 911.614 591.883 910.976 593.796C913.487 596.927 916.923 596.843 920.243 595.2L920.665 594.384L921.435 594.67C920.706 597.008 921.225 596.152 919.35 597.877C917.38 598.527 915.905 598.828 913.817 598.201C912.16 597.709 910.79 596.536 910.047 594.976C907.524 589.696 910.056 584.823 915.238 582.601Z"/><path fill="white" transform="scale(0.375092 0.376302)" d="M914.698 584.516C917.263 584.614 920.067 585.759 920.243 588.603L919.117 589.419C916.518 589.454 914.07 589.791 911.967 588.538C912.336 586.292 912.848 586.417 914.698 584.516Z"/><path fill="#020202" transform="scale(0.375092 0.376302)" d="M662.5 582.574C666.861 583.273 671.146 585.676 670.212 590.665C667.984 591.97 664.278 590.936 660.516 591.435C658.871 592.937 659.205 592.189 659.054 594.148C661.028 596.918 664.877 596.734 667.632 595.228C668.357 594.318 667.911 594.692 669.153 594.339L669.176 595.521C662.039 605.572 649.672 590.143 662.5 582.574Z"/><path fill="white" transform="scale(0.375092 0.376302)" d="M662.122 584.503C664.906 584.607 667.578 585.775 668.175 588.686L667.171 589.615C664.586 589.661 661.516 590.058 659.574 588.595C659.932 586.385 660.456 586.417 662.122 584.503Z"/><path fill="#020202" transform="scale(0.375092 0.376302)" d="M890.464 582.504C897.48 583.945 899.549 591.39 896.729 597.186C894.564 598.593 891.578 597.871 888.871 597.994C887.054 598.077 885.671 595.907 884.565 594.562C886.897 588.761 889.236 591.2 894.563 587.668L894.611 586.67L893.404 585.595C889.871 584.929 889.343 585.801 885.931 586.206C887.359 584.269 888.463 583.746 890.464 582.504Z"/><path fill="white" transform="scale(0.375092 0.376302)" d="M892.405 590.55C893.789 590.692 893.94 590.93 895.007 591.782L895.127 593.374C893.694 595.844 892.921 596.069 890.404 597.385C888.109 596.248 887.42 595.841 887.363 593.407C888.766 591.434 890.126 591.259 892.405 590.55Z"/><path fill="#020202" transform="scale(0.375092 0.376302)" d="M742.853 583.005C746.413 583.118 745.091 585.813 751.586 583.778C753.45 583.194 755.032 583.833 756.63 584.966C758.4 588.177 757.329 593.934 756.905 597.649L756.161 598.223C754.128 596.675 756.586 587.136 751.483 583.798L750.235 584.292C747.816 587.457 748.009 590.356 747.993 594.166C747.843 596.867 748.283 596.5 746.835 598.249C744.854 595.764 747.524 588.833 744.365 585.168C742.282 584.327 743.061 584.281 741.323 584.994C739.138 587.684 738.124 594.377 737.375 598.034L736.989 597.498C736.816 594.365 735.812 585.896 737.605 583.867C739.887 583.934 740.253 583.833 742.329 583.176L742.853 583.005Z"/><path fill="#020202" transform="scale(0.375092 0.376302)" d="M466.487 577.376C469.177 577.369 478.096 577.131 480.085 577.815L479.991 578.72C477.195 580.702 471.592 578.026 468.754 580.123C468.432 582.889 468.513 583.434 468.92 586.183C471.232 587.262 475.478 586.263 478.948 586.974L479.108 587.918C477.076 589.057 471.531 588.567 468.721 588.559C468.543 590.858 468.051 593.477 469.117 595.442C471.198 597.057 477.065 596.635 480.033 596.706L480.3 597.252C476.265 598.769 471.047 598.331 466.508 598.406L466.487 577.376Z"/><path fill="#020202" transform="scale(0.375092 0.376302)" d="M720.219 582.843C724.384 586.086 720.252 590.415 722.626 594.913C724.763 596.722 723.803 596.352 726.285 596.697C732.462 593.336 728.507 588.593 731.279 583.542L732.081 583.881L732.347 585.833C732.366 588.564 732.889 596.162 731.794 598.092C730.406 597.882 730.761 597.863 729.505 596.808C718.371 603.605 719.463 589.376 720.219 582.843Z"/><path fill="#020202" transform="scale(0.375092 0.376302)" d="M703.713 583.051C706.319 584.553 707.563 583.69 710.69 583.279C717.163 582.429 717.212 594.881 714.267 597.24C713.653 594.245 713.797 590.548 713.796 587.438C713.124 585.782 711.144 584.172 709.369 584.016C705.682 585.992 705.743 592.982 704.247 597.772C703.607 592.576 703.695 588.283 703.713 583.051Z"/><path fill="#020202" transform="scale(0.375092 0.376302)" d="M502.615 582.584C506.164 582.759 508.155 583.764 510.377 586.564L510.146 586.097L510.307 587.21L510.424 586.725L509.708 587.452C506.775 586.199 504.383 585.073 501.211 585.394C497.514 587.594 499.702 591.496 501.034 594.91C503.343 596.855 502.83 596.303 506.059 596.958C507.418 595.347 507.817 594.552 509.82 593.956L509.969 595.014C503.917 605.937 490.386 591.113 502.615 582.584Z"/><path fill="#020202" transform="scale(0.375092 0.376302)" d="M875.033 582.569C877.86 582.998 881.269 584.075 882.081 587.038L881.435 587.692C878.287 585.575 877.178 583.835 873.703 585.63C869.942 590.484 871.305 596.486 878.577 596.407C880.041 594.724 880.062 594.059 881.853 593.828L881.873 595.189C881.363 596.026 880.821 596.902 880.027 597.495C878.824 598.387 877.315 598.762 875.834 598.535C867.424 597.301 868.067 586.819 875.033 582.569Z"/><path fill="#020202" transform="scale(0.375092 0.376302)" d="M483.378 582.573C486.11 583.622 487.963 586.73 489.687 589.108C490.757 587.42 492.345 584.415 494.275 584.097C494.087 586.4 492.151 588.674 490.782 590.642C492.777 593.082 494.26 594.657 495.527 597.538L495.007 598.775C493.578 597.496 490.79 593.927 489.44 592.286C486.791 595.647 484.627 598.259 481.739 601.437C484.119 596.307 485.066 594.982 488.317 590.469C486.583 588.201 483.933 585.246 483.378 582.573Z"/><path fill="#020202" transform="scale(0.375092 0.376302)" d="M904.063 576.369C905.982 576.53 906.432 576.509 908.147 577.348L908.062 578.252C906.786 578.567 905.995 578.805 904.756 579.239C904.131 581.439 904.024 580.629 904.802 582.501L907.468 583.47L907.44 584.253L904.664 585.535C903.883 587.666 904.204 593.448 904.231 596.022C904.194 596.355 903.768 597.656 903.645 598.062L902.633 597.898C901.477 594.995 901.987 587.347 901.05 583.784C900.87 583.1 903.442 577.617 904.063 576.369Z"/><path fill="#020202" transform="scale(0.375092 0.376302)" d="M530.25 576.279C533.5 579.161 530.832 590.086 531.94 594.485C532.727 597.609 533.334 594.698 534.404 598.685C531.727 598.596 532.646 598.962 530.716 597.539C528.542 593.238 529.454 581.076 530.25 576.279Z"/><path fill="#020202" transform="scale(0.375092 0.376302)" d="M801.879 576.314L803.071 577.166C805.281 584.21 800.117 591.303 806.593 597.949C804.402 598.81 804.105 598.67 802.506 597.349C800.299 592.677 801.073 581.449 801.879 576.314Z"/><path fill="#020202" transform="scale(0.375092 0.376302)" d="M582.659 583.102C582.841 583.403 583.023 583.704 583.205 584.005C581.971 585.289 578.747 586.737 578.72 586.79C576.674 590.817 579.529 595.084 576.821 599.185C575.936 596.247 575.526 586.366 576.869 583.7C579.277 583.865 579.764 583.785 582.066 583.244L582.659 583.102Z"/></svg>